<?xml version="1.0" encoding="utf-8"?>

<!DOCTYPE svg PUBLIC "-//W3C//DTD SVG 1.1//EN" "http://www.w3.org/Graphics/SVG/1.1/DTD/svg11.dtd">
<!-- Uploaded to: SVG Repo, www.svgrepo.com, Generator: SVG Repo Mixer Tools -->
<svg height="800px" width="800px" version="1.1" id="_x32_" xmlns="http://www.w3.org/2000/svg" xmlns:xlink="http://www.w3.org/1999/xlink" 
	 viewBox="0 0 512 512"  xml:space="preserve">
<style type="text/css">
	.st0{fill:#000000;}
</style>
<g>
	<path class="st0" d="M183.97,400.475c4.461,0,8.073-3.612,8.073-8.074c0-4.462-3.612-8.073-8.073-8.073
		c-4.462,0-8.074,3.611-8.074,8.073C175.896,396.863,179.508,400.475,183.97,400.475z"/>
	<path class="st0" d="M463.05,428.363c-2.22-12.233-6.502-22.75-12.348-31.55c-5.903-8.881-13.22-15.916-21.149-21.697
		c-0.937-1.089-1.766-2.047-2.313-2.703c-10.2-12.232-4.917-27.06-39.314-30.447c-6.041-0.599-14.568-13.328-19.736-15.065
		c-17.207-5.788-29.425-0.281-35.955,8.772c-0.923-0.577-1.903-1.139-2.754-1.73c-3.172-2.192-5.701-4.506-7.194-6.487
		c-1.52-2.019-1.91-3.432-1.91-4.412c0-7.965,0-17.919,0-31.031c10.596-11.792,25.82-30.065,32.076-59.035
		c2.184-0.98,4.347-2.098,6.43-3.547c5.183-3.575,9.58-8.772,13.307-15.836c3.748-7.092,7.071-16.161,10.617-28.566
		c2.689-9.429,3.784-16.925,3.792-23.088c0.036-8.794-2.393-15.13-5.817-19.101c-0.634-0.75-1.283-1.305-1.932-1.86
		c0-6.437,0-18.806,0-29.986c-0.036-14.567-2.84-41.814-20.017-66.272c-8.585-12.19-20.861-23.528-37.792-31.652
		C304.109,4.923,282.643-0.007,255.669,0c-26.973-0.007-48.439,4.923-65.371,13.068c-25.446,12.19-40.193,31.608-48.166,50.27
		c-8.016,18.705-9.63,36.697-9.645,47.654c0,11.18,0,23.549,0,29.986c-0.648,0.555-1.297,1.11-1.932,1.86
		c-3.423,3.971-5.852,10.307-5.817,19.101c0.008,6.171,1.104,13.66,3.792,23.088c4.743,16.522,9.025,27.19,14.568,35.017
		c2.768,3.886,5.926,7.006,9.356,9.385c2.083,1.449,4.246,2.567,6.43,3.547c6.257,28.97,21.481,47.243,32.077,59.035
		c0,13.112,0,23.066,0,31.031c0,0.98-0.389,2.393-1.91,4.412c-1.484,1.996-4.087,4.274-7.244,6.48
		c-1.499-3.734-2.955-7.388-4.296-10.733c-7.381-18.453-20.298,5.536-25.834,11.072c-16.608-3.69-38.751,9.227-38.751,16.608
		c0,1.376,1.477,3.683,3.877,6.524c-13.89,4.858-28.53,11.641-41.044,22.374c-8.419,7.23-15.815,16.312-21.012,27.6
		c-5.204,11.281-8.189,24.688-8.181,40.373c0,3.64,0.158,7.403,0.49,11.295c0.238,2.732,1.276,4.945,2.494,6.776
		c2.321,3.41,5.399,5.94,9.255,8.542c6.754,4.47,16.11,8.838,28.09,13.126C122.75,500.279,182.11,511.986,255.669,512
		c59.764,0,110.207-7.756,146.212-17.502c18.013-4.887,32.394-10.228,42.788-15.569c5.204-2.689,9.414-5.349,12.751-8.261
		c1.672-1.47,3.135-3.013,4.368-4.844c1.211-1.831,2.256-4.044,2.494-6.776c0.202-2.386,0.224-4.628,0.303-6.92
		c0.354-2.17,0.649-4.476,0.794-7.136C465.674,439.608,464.759,433.993,463.05,428.363z M356.931,403.458
		c1.874-0.785,4.036,0.101,4.822,1.982c0.786,1.874-0.101,4.037-1.982,4.822c-21.899,9.155-44.799,12.254-65.869,12.254
		c-41.13-0.015-75.275-11.75-81.993-14.2c1.218-2.134,2.177-4.398,2.89-6.798c0.036,0.014,0.044,0.014,0.08,0.029
		c1.067,0.382,2.652,0.937,4.692,1.6c4.087,1.326,10.026,3.099,17.35,4.88c14.654,3.561,34.874,7.108,56.981,7.108
		C314.251,415.136,336.185,412.13,356.931,403.458z M191.141,347.27c4.102-2.868,7.857-6.084,10.842-9.997
		c2.948-3.864,5.211-8.701,5.211-14.23c0-8.614,0-19.376,0-34.138v-3.114l-2.083-2.32c-11.072-12.333-26.064-28.704-31.262-57.796
		l-0.822-4.649l-4.44-1.586c-2.826-1.009-4.981-2.04-6.862-3.344c-2.775-1.961-5.291-4.635-8.232-10.114
		c-2.905-5.449-5.983-13.595-9.349-25.408c-2.386-8.355-3.171-14.438-3.164-18.634c0.036-6.084,1.478-7.994,1.925-8.556l0.18-0.18
		l2.004-0.418c4.649,6.963,17.66,26.483,17.66,26.483s-2.588-29.525-2.588-46.132c0-16.608-3.691-53.514,16.608-73.812
		s7.381,0,38.752,9.226l19.196-12.917c0,0,16.608,14.762,31.37,16.608l11.072-22.144c0,0,16.608,16.608,35.061,22.144V51.942
		c0,0,18.453,0,25.834,14.762s13.291,31.37,13.291,44.287c0,12.917,0,60.895,0,60.895l14.121-19.267l2.79,0.584
		c0.144,0.129,0.432,0.389,0.893,1.354c0.534,1.168,1.212,3.417,1.212,7.381c0.007,4.196-0.779,10.286-3.164,18.634
		c-4.476,15.771-8.492,24.94-12.175,30.029c-1.845,2.574-3.532,4.181-5.406,5.493c-1.881,1.304-4.037,2.336-6.862,3.344
		l-4.448,1.586l-0.814,4.649c-5.197,29.092-20.19,45.463-31.262,57.796l-2.083,2.32v3.114c0,14.762,0,25.524,0,34.138
		c0,5.528,2.263,10.366,5.212,14.23c3.863,5.031,9.01,8.952,14.56,12.369c-24.508,29.446-107.654,32.61-107.654,32.61
		c-0.174,1.355-0.404,2.624-0.635,3.892c-2.335-11.908-11.267-21.344-22.8-24.652c-1.354-3.38-3.042-7.598-4.887-12.211
		C189.008,348.612,190.119,347.984,191.141,347.27z M183.97,367.49c13.753,0.022,24.882,11.158,24.912,24.912
		c-0.03,13.754-11.159,24.883-24.912,24.912c-13.754-0.029-24.89-11.158-24.912-24.912
		C159.079,378.648,170.216,367.511,183.97,367.49z M86.63,416.563c-4.181,14.662-6.033,31.716-6.639,50.717
		c-2.126-0.944-4.123-1.881-5.889-2.789c-4.418-2.27-7.677-4.433-9.479-6.026c-0.772-0.67-1.204-1.182-1.42-1.478
		c-0.252-3.201-0.396-6.293-0.396-9.234c0.029-18.222,4.484-31.536,11.368-41.974c8.563-12.967,21.451-21.711,35.471-28.047
		C98.451,387.493,91.142,400.72,86.63,416.563z M112.954,478.619c-9.875-2.696-18.496-5.536-25.726-8.34
		c0.685-27.687,4.08-50.61,12.528-67.541c4.801-9.638,11.151-17.372,19.642-23.283c3.799-2.638,8.116-4.858,12.867-6.747
		c1.816,1.644,3.647,3.273,5.45,4.844c-3.215,2.198-6.077,4.931-8.491,8.21c-6.812,9.219-10.748,22.165-13.148,38.311
		C113.826,439.413,113.033,457.787,112.954,478.619z M373.106,484.609c-29.309,5.997-65.725,10.379-107.02,11.028v-19.274h-7.381
		v19.368c-1.024,0-2.004,0.036-3.035,0.036c-54.789,0-101.354-6.747-135.356-15.281c0.044-28.754,1.47-52.534,5.875-69.639
		c2.228-8.7,5.204-15.641,8.96-20.687c2.473-3.302,5.255-5.745,8.441-7.547c3.344,2.84,6.264,5.277,8.368,7.006
		c-0.079,0.93-0.28,1.832-0.28,2.783c0,17.833,14.459,32.293,32.293,32.293c4.274,0,8.339-0.872,12.074-2.386
		c65.479,45.159,136.185,59.944,181.33,61.37C375.939,483.989,374.577,484.306,373.106,484.609z"/>
</g>
</svg>